<?xml version="1.0" standalone="no"?><!DOCTYPE svg PUBLIC "-//W3C//DTD SVG 1.1//EN" "http://www.w3.org/Graphics/SVG/1.1/DTD/svg11.dtd"><svg t="1629094108649" class="icon" viewBox="0 0 1024 1024" version="1.1" xmlns="http://www.w3.org/2000/svg" p-id="2418" xmlns:xlink="http://www.w3.org/1999/xlink" width="40" height="40"><defs><style type="text/css"></style></defs><path d="M275.28544 218.688s-21.632 2.8032-21.9584 72.5376 1.088 525.664 1.088 534.1632-13.76 33.1072 20.864 54.144l7.1168 10.848s-11.3792 16.7552 31.3088 24.6528 182.2272 39.0464 303.6032 17.2096 116.5824-43.8208 116.5824-43.8208l30.88-44.2432-8.256-211.6224 2.9504-197.312s3.2512-189.696-10.2528-205.9904a57.6448 57.6448 0 0 0-25.664-19.584 319.488 319.488 0 0 1-61.9904 21.4208c-26.624 4.8832-139.6352 18.7008-167.616 14.336s-77.312-3.4752-110.0416-8.3968-98.176-18.7904-103.3984-19.68-5.216 1.3376-5.216 1.3376z" fill="#EE6A54" p-id="2419"></path><path d="M523.94464 949.4976c-82.6688 0-160.1472-15.0144-199.456-22.6304-4.8-0.928-8.9984-1.7408-12.5312-2.3936-21.888-4.0512-34.6432-11.104-39.0144-21.568a19.4688 19.4688 0 0 1-1.1648-11.2192l-3.3664-5.1264c-32.2112-20.6464-26.7136-46.208-24.3392-57.2352a39.456 39.456 0 0 0 0.7424-3.968l-0.1152-41.888c-0.3392-118.9376-1.2416-434.8608-0.9728-492.288 0.2816-60.9984 16.576-76.768 25.9328-80.768a14.8096 14.8096 0 0 1 12.4608-2.528c1.2672 0.2176 6.016 1.1776 12.96 2.592 21.2736 4.3328 65.536 13.344 90.2464 17.0624 16.3008 2.4512 37.1712 3.4304 57.3568 4.384 19.84 0.928 38.592 1.8112 52.736 4.0192 25.6832 4 135.5648-9.0048 164.4032-14.2912a311.6864 311.6864 0 0 0 59.6608-20.672 9.6704 9.6704 0 0 1 6.5728-0.576 66.2208 66.2208 0 0 1 30.5472 22.72c14.2336 17.1776 13.4528 154.176 12.4608 212.2816l-2.9568 197.2992 8.256 211.104a9.6064 9.6064 0 0 1-1.7216 5.8688l-29.4912 42.2528a18.5856 18.5856 0 0 1-2.752 6.112c-10.9824 16.448-51.8272 31.1296-121.3888 43.648a540.0704 540.0704 0 0 1-95.0656 7.808zM277.53824 228.0256c-1.28 0.768-14.368 10.0096-14.6112 63.2448-0.2688 57.3568 0.6336 373.2288 0.9728 492.1408l0.1152 41.984a38.304 38.304 0 0 1-1.1712 7.968c-2.3232 10.7904-5.2096 24.2176 17.4272 37.9584a9.6128 9.6128 0 0 1 3.04 2.944l7.1168 10.8544a7.808 7.808 0 0 1-0.0896 10.656c0.7232 0.4928 4.2048 5.952 25.1136 9.8176 3.5776 0.6592 7.8272 1.4848 12.6912 2.432 53.248 10.304 177.9712 34.464 287.4688 14.7712 92.16-16.5888 106.8032-32.448 108.7168-35.2448a9.5808 9.5808 0 0 1 1.6896-4.6208l29.0368-41.6-8.1344-208.3968 2.944-197.8368c1.5296-88.9728-1.152-188.096-8.256-200.0064a57.504 57.504 0 0 0-17.8624-14.9568 308.992 308.992 0 0 1-60.4544 20.4032c-24.192 4.4352-140.224 19.1552-170.8352 14.3744-13.12-2.048-31.36-2.9056-50.6752-3.808-20.672-0.9728-42.0352-1.9776-59.3088-4.576-25.1968-3.7888-69.792-12.8704-91.2256-17.2352-5.248-1.0688-9.1904-1.8752-11.2-2.2656a9.4784 9.4784 0 0 1-2.5088 0.9984z m446.9632 662.4128l0.0064 0.032z m0-0.0256v0.0192z m-0.0128-0.0256l0.0064 0.0128z m0-0.0256v0.0128zM276.53984 228.2048l-0.032 0.0064z m0.0256 0h-0.0256z m0.0256 0h-0.0192z m8.288-9.4208z m0-0.0256z m0-0.032z m0-0.032z m-9.6 0z" p-id="2420"></path><path d="M703.20864 204.8832h-0.064a9.6 9.6 0 1 1 0.064 0zM731.60544 899.9232a9.6 9.6 0 0 1-5.9392-17.152 61.5616 61.5616 0 0 0 24.1984-48.3712V265.4144a62.368 62.368 0 0 0-31.2704-53.2864 9.6 9.6 0 1 1 9.9136-16.448 81.3952 81.3952 0 0 1 40.5568 69.7344v568.9856a80.64 80.64 0 0 1-31.5328 63.4688 9.568 9.568 0 0 1-5.9264 2.048z" p-id="2421"></path><path d="M724.96864 198.624a11.6032 11.6032 0 0 1-1.4144 5.2864c-12.7488 23.3728-108.7168 41.5296-225.3504 41.5296-106.912 0-196.512-15.2384-220.5184-35.7632a15.2384 15.2384 0 0 1-6.3104-11.0528" fill="#BBBBBB" p-id="2422"></path><path d="M498.20384 255.04c-108.992 0-200.1216-15.296-226.752-38.0672a24.288 24.288 0 0 1-9.6768-18.3488 9.6 9.6 0 0 1 19.2 0c0 0.256 0.512 1.6384 3.008 3.808 18.9184 16.1664 100.4672 33.408 214.2208 33.408 128.544 0 208.576-21.216 216.9216-36.5248a2.2976 2.2976 0 0 0 0.2432-0.7232 9.6 9.6 0 0 1 19.2 0.032 21.1392 21.1392 0 0 1-2.4704 9.6576c-17.5488 32.192-133.5168 46.7584-233.8944 46.7584z" p-id="2423"></path><path d="M277.99904 899.9808a9.5488 9.5488 0 0 1-5.9264-2.048 80.7296 80.7296 0 0 1-31.6032-63.5328V265.4144a80.6144 80.6144 0 0 1 31.2576-63.264 9.6 9.6 0 0 1 11.9168 15.0528 61.536 61.536 0 0 0-23.9744 48.2112v568.9856a61.6512 61.6512 0 0 0 24.2688 48.4352 9.6 9.6 0 0 1-5.9392 17.152z" p-id="2424"></path><path d="M271.40704 175.3024a226.7904 46.7648 0 1 0 453.5808 0 226.7904 46.7648 0 1 0-453.5808 0Z" fill="#BBBBBB" p-id="2425"></path><path d="M498.19744 231.6672c-81.76 0-236.3904-11.7824-236.3904-56.3648s154.624-56.3584 236.3904-56.3584 236.3904 11.776 236.3904 56.3584-154.624 56.3648-236.3904 56.3648z m0-93.5232c-143.296 0-217.1904 26.048-217.1904 37.1584s73.8944 37.1648 217.1904 37.1648 217.1904-26.048 217.1904-37.1648-73.8944-37.1584-217.1904-37.1584z" p-id="2426"></path><path d="M278.52384 186.9696c25.1648-20.16 113.9904-35.0976 219.68-35.0976s194.4512 14.9376 219.6224 35.0976" fill="#BBBBBB" p-id="2427"></path><path d="M717.81984 196.5632a9.5488 9.5488 0 0 1-5.9904-2.1056c-20.4736-16.3904-100.416-32.9856-213.6192-32.9856-113.248 0-193.216 16.5952-213.6896 32.9856a9.6 9.6 0 1 1-12-14.9824c27.7824-22.2528 118.4768-37.2032 225.6832-37.2032 107.168 0 197.8368 14.9504 225.6192 37.2032a9.6 9.6 0 0 1-6.0096 17.088z" p-id="2428"></path><path d="M271.40704 208.256a9.6 9.6 0 0 1-9.6-9.6v-23.3536a9.6 9.6 0 0 1 19.2 0v23.3536a9.6 9.6 0 0 1-9.6 9.6zM724.98784 208.256a9.6 9.6 0 0 1-9.6-9.6v-23.3536a9.6 9.6 0 1 1 19.2 0v23.3536a9.6 9.6 0 0 1-9.6 9.6zM504.76384 924.6336a948.8896 948.8896 0 0 1-126.2336-7.8656 9.6 9.6 0 0 1 2.6112-19.0144 929.7792 929.7792 0 0 0 123.6288 7.68 931.1424 931.1424 0 0 0 123.6288-7.68 9.6 9.6 0 1 1 2.6112 19.0144 950.3232 950.3232 0 0 1-126.24 7.8656z" p-id="2429"></path><path d="M504.78944 948c-108.992 0-200.128-15.296-226.752-38.0672a24.3072 24.3072 0 0 1-9.6768-18.3424 9.6 9.6 0 0 1 19.2 0c0 0.2496 0.512 1.632 3.008 3.8016 19.392 16.576 99.2384 33.408 214.2208 33.408 128.544 0 208.5696-21.2096 216.9216-36.5184a2.3168 2.3168 0 0 0 0.2432-0.7232 9.6 9.6 0 0 1 19.2 0.032 21.12 21.12 0 0 1-2.4704 9.664c-17.5488 32.1856-133.5168 46.7456-233.8944 46.7456z" p-id="2430"></path><path d="M278.01184 901.1968a9.6 9.6 0 0 1-9.6-9.6v-1.216a9.6 9.6 0 0 1 19.2 0v1.216a9.6 9.6 0 0 1-9.6 9.6zM731.59904 901.1968a9.6 9.6 0 0 1-9.6-9.6v-1.28a9.6 9.6 0 0 1 19.2 0v1.28a9.6 9.6 0 0 1-9.6 9.6zM610.61344 220.928a9.5552 9.5552 0 0 1-2.6432-0.3712l-35.2256-10.08c-1.0432 0.0192-1.984 0.0448-2.8416 0.0768a17.408 17.408 0 0 1-13.9648-3.6992 19.104 19.104 0 0 1-4.3648-14.464v-1.3952a19.776 19.776 0 0 1 4.224-15.5904 19.7504 19.7504 0 0 1 14.9824-4.48l38.1184-6.912a9.8112 9.8112 0 0 1 1.7152-0.16 28.5632 28.5632 0 1 1 0 57.0816z m-36.5568-29.6576a9.5744 9.5744 0 0 1 2.6432 0.3712l35.0592 10.0288a9.2992 9.2992 0 1 0-0.416-18.592l-37.9648 6.8864a15.5456 15.5456 0 0 1-2.6112 0.16v1.1904c1.0048-0.0256 2.0992-0.0448 3.2896-0.0448z" p-id="2431"></path><path d="M756.21344 696.9152c-123.3024 38.368-187.0016 20.5056-222.4064-3.104-45.8752-30.5856-42.6304-76.4544-96.416-114.7136a329.1392 329.1392 0 0 0-185.1264-58.912l1.0624-228.96a329.1456 329.1456 0 0 1 185.1264 58.912c53.7856 38.2592 50.5344 84.128 96.416 114.7136 35.4048 23.6096 99.0976 41.472 222.4 3.104z" fill="#EEEEEE" p-id="2432"></path><path d="M630.13984 728.7168c-40.768 0-74.7392-8.9728-101.6576-26.9184-24.1344-16.0896-35.8656-36.3328-47.2128-55.9168-11.5392-19.904-23.4688-40.4864-49.44-58.9632a319.7248 319.7248 0 0 0-179.6672-57.1328 9.6 9.6 0 0 1-9.4976-9.6448l1.0624-228.9536a9.6128 9.6128 0 0 1 2.8608-6.7968 9.8432 9.8432 0 0 1 6.8416-2.7648 339.1296 339.1296 0 0 1 190.592 60.6848c29.3632 20.896 42.944 44.32 54.912 64.992 11.1872 19.2896 20.8384 35.9552 41.2544 49.5616 46.5408 31.0272 118.624 31.68 214.2336 1.92a9.6 9.6 0 0 1 12.4544 9.216l-1.0624 228.96a9.6 9.6 0 0 1-6.7456 9.12 441.2032 441.2032 0 0 1-128.9344 22.6368zM261.90304 510.8288a337.984 337.984 0 0 1 181.056 60.4416c29.3632 20.8896 42.944 44.32 54.912 64.992 11.1872 19.2896 20.8448 35.9552 41.2608 49.5616 45.44 30.2976 115.232 31.6288 207.5136 3.968l0.9664-208.9088c-95.296 27.6224-168.6144 24.928-218.0736-8.0448-24.1344-16.0896-35.8656-36.3328-47.2128-55.9104-11.5392-19.904-23.4688-40.4928-49.44-58.9696a318.5024 318.5024 0 0 0-170.0096-56.8768z m494.304 186.0864z" p-id="2433"></path><path d="M291.67584 714.432a9.6 9.6 0 0 1-9.6-9.6V350.2208a9.6 9.6 0 0 1 19.2 0v354.6112a9.6 9.6 0 0 1-9.6 9.6z" fill="#FFFFFF" p-id="2434"></path></svg>